<mxfile host="app.diagrams.net" agent="Mozilla/5.0 (Windows NT 10.0; Win64; x64; rv:128.0) Gecko/20100101 Firefox/128.0" version="26.0.11">
  <diagram name="StrÃ¡nka-1" id="Cti2zidHe7Kt174e0P8Y">
    <mxGraphModel dx="1434" dy="746" grid="1" gridSize="10" guides="1" tooltips="1" connect="1" arrows="1" fold="1" page="1" pageScale="1" pageWidth="827" pageHeight="1169" math="0" shadow="0">
      <root>
        <mxCell id="0" />
        <mxCell id="1" parent="0" />
        <mxCell id="dMZNgqr6vpzoRhoUxxYw-1" value="&lt;div&gt;Attribute&lt;/div&gt;&lt;div&gt;(type)&lt;br&gt;&lt;/div&gt;" style="rounded=0;whiteSpace=wrap;html=1;" vertex="1" parent="1">
          <mxGeometry x="200" y="330" width="120" height="60" as="geometry" />
        </mxCell>
        <mxCell id="dMZNgqr6vpzoRhoUxxYw-2" value="&lt;div&gt;AttribTypeValues&lt;/div&gt;" style="rounded=0;whiteSpace=wrap;html=1;" vertex="1" parent="1">
          <mxGeometry x="440" y="360" width="120" height="60" as="geometry" />
        </mxCell>
        <mxCell id="dMZNgqr6vpzoRhoUxxYw-3" value="User" style="rounded=0;whiteSpace=wrap;html=1;" vertex="1" parent="1">
          <mxGeometry x="504" y="180" width="120" height="60" as="geometry" />
        </mxCell>
        <mxCell id="dMZNgqr6vpzoRhoUxxYw-4" value="many attributes" style="rounded=0;whiteSpace=wrap;html=1;" vertex="1" parent="1">
          <mxGeometry x="320" y="180" width="120" height="60" as="geometry" />
        </mxCell>
        <mxCell id="dMZNgqr6vpzoRhoUxxYw-5" value="" style="endArrow=classic;html=1;rounded=0;exitX=0;exitY=0.5;exitDx=0;exitDy=0;entryX=1;entryY=0.5;entryDx=0;entryDy=0;" edge="1" parent="1" source="dMZNgqr6vpzoRhoUxxYw-3" target="dMZNgqr6vpzoRhoUxxYw-4">
          <mxGeometry width="50" height="50" relative="1" as="geometry">
            <mxPoint x="460" y="310" as="sourcePoint" />
            <mxPoint x="510" y="260" as="targetPoint" />
          </mxGeometry>
        </mxCell>
        <mxCell id="dMZNgqr6vpzoRhoUxxYw-6" value="" style="endArrow=classic;html=1;rounded=0;entryX=0;entryY=1;entryDx=0;entryDy=0;exitX=0.558;exitY=-0.033;exitDx=0;exitDy=0;exitPerimeter=0;" edge="1" parent="1" source="dMZNgqr6vpzoRhoUxxYw-1" target="dMZNgqr6vpzoRhoUxxYw-4">
          <mxGeometry width="50" height="50" relative="1" as="geometry">
            <mxPoint x="200" y="290" as="sourcePoint" />
            <mxPoint x="250" y="240" as="targetPoint" />
          </mxGeometry>
        </mxCell>
        <mxCell id="dMZNgqr6vpzoRhoUxxYw-7" value="" style="endArrow=classic;html=1;rounded=0;exitX=0;exitY=0.5;exitDx=0;exitDy=0;entryX=1;entryY=0.5;entryDx=0;entryDy=0;" edge="1" parent="1" source="dMZNgqr6vpzoRhoUxxYw-2" target="dMZNgqr6vpzoRhoUxxYw-1">
          <mxGeometry width="50" height="50" relative="1" as="geometry">
            <mxPoint x="170" y="480" as="sourcePoint" />
            <mxPoint x="220" y="430" as="targetPoint" />
          </mxGeometry>
        </mxCell>
        <mxCell id="dMZNgqr6vpzoRhoUxxYw-8" value="lists all available values" style="text;html=1;align=center;verticalAlign=middle;whiteSpace=wrap;rounded=0;" vertex="1" parent="1">
          <mxGeometry x="500" y="420" width="120" height="50" as="geometry" />
        </mxCell>
        <mxCell id="dMZNgqr6vpzoRhoUxxYw-9" value="Object" style="rounded=0;whiteSpace=wrap;html=1;" vertex="1" parent="1">
          <mxGeometry x="240" y="585" width="120" height="60" as="geometry" />
        </mxCell>
        <mxCell id="dMZNgqr6vpzoRhoUxxYw-10" value="Attribute" style="rounded=0;whiteSpace=wrap;html=1;" vertex="1" parent="1">
          <mxGeometry x="450" y="585" width="120" height="60" as="geometry" />
        </mxCell>
        <mxCell id="dMZNgqr6vpzoRhoUxxYw-11" value="" style="endArrow=classic;html=1;rounded=0;entryX=0;entryY=0.5;entryDx=0;entryDy=0;exitX=1;exitY=0.5;exitDx=0;exitDy=0;" edge="1" parent="1" source="dMZNgqr6vpzoRhoUxxYw-9" target="dMZNgqr6vpzoRhoUxxYw-10">
          <mxGeometry width="50" height="50" relative="1" as="geometry">
            <mxPoint x="260" y="780" as="sourcePoint" />
            <mxPoint x="310" y="730" as="targetPoint" />
          </mxGeometry>
        </mxCell>
        <mxCell id="dMZNgqr6vpzoRhoUxxYw-14" value="" style="endArrow=classic;html=1;rounded=0;entryX=0;entryY=0.5;entryDx=0;entryDy=0;exitX=0.433;exitY=1.05;exitDx=0;exitDy=0;exitPerimeter=0;" edge="1" parent="1">
          <mxGeometry width="50" height="50" relative="1" as="geometry">
            <mxPoint x="285.96000000000004" y="648" as="sourcePoint" />
            <mxPoint x="234" y="615" as="targetPoint" />
            <Array as="points">
              <mxPoint x="286" y="690" />
              <mxPoint x="210" y="690" />
              <mxPoint x="210" y="615" />
            </Array>
          </mxGeometry>
        </mxCell>
        <mxCell id="dMZNgqr6vpzoRhoUxxYw-17" value="" style="endArrow=classic;html=1;rounded=0;exitX=1;exitY=0.5;exitDx=0;exitDy=0;" edge="1" parent="1">
          <mxGeometry width="50" height="50" relative="1" as="geometry">
            <mxPoint x="360" y="644" as="sourcePoint" />
            <mxPoint x="450" y="710" as="targetPoint" />
          </mxGeometry>
        </mxCell>
        <mxCell id="dMZNgqr6vpzoRhoUxxYw-18" value="Type" style="rounded=0;whiteSpace=wrap;html=1;" vertex="1" parent="1">
          <mxGeometry x="450" y="680" width="120" height="60" as="geometry" />
        </mxCell>
        <mxCell id="dMZNgqr6vpzoRhoUxxYw-19" value="&lt;div&gt;user has many attributes,&lt;/div&gt;&amp;nbsp;attribute has many users" style="text;html=1;align=center;verticalAlign=middle;whiteSpace=wrap;rounded=0;" vertex="1" parent="1">
          <mxGeometry x="110" y="250" width="170" height="50" as="geometry" />
        </mxCell>
        <mxCell id="dMZNgqr6vpzoRhoUxxYw-20" value="attribute has allowed values" style="text;html=1;align=center;verticalAlign=middle;whiteSpace=wrap;rounded=0;" vertex="1" parent="1">
          <mxGeometry x="260" y="400" width="170" height="50" as="geometry" />
        </mxCell>
        <mxCell id="dMZNgqr6vpzoRhoUxxYw-21" value="attribute value here" style="text;html=1;align=center;verticalAlign=middle;whiteSpace=wrap;rounded=0;" vertex="1" parent="1">
          <mxGeometry x="300" y="120" width="170" height="50" as="geometry" />
        </mxCell>
      </root>
    </mxGraphModel>
  </diagram>
</mxfile>
